TITLE ""
FILE "DISC1Track08.mp3" MP3
  TRACK 01 AUDIO
    TITLE "DISC1Track08_01"
    INDEX 01 00:00:00
  TRACK 02 AUDIO
    TITLE "DISC1Track08_02"
    INDEX 01 00:01:00
  TRACK 03 AUDIO
    TITLE "DISC1Track08_03"
    INDEX 01 00:01:12
  TRACK 04 AUDIO
    TITLE "DISC1Track08_04"
    INDEX 01 00:04:69
  TRACK 05 AUDIO
    TITLE "DISC1Track08_05"
    INDEX 01 00:08:53
  TRACK 06 AUDIO
    TITLE "DISC1Track08_06"
    INDEX 01 00:12:00
  TRACK 07 AUDIO
    TITLE "DISC1Track08_07"
    INDEX 01 00:12:13
  TRACK 08 AUDIO
    TITLE "DISC1Track08_08"
    INDEX 01 00:16:64
  TRACK 09 AUDIO
    TITLE "DISC1Track08_09"
    INDEX 01 00:21:24
  TRACK 10 AUDIO
    TITLE "DISC1Track08_10"
    INDEX 01 00:25:30
  TRACK 11 AUDIO
    TITLE "DISC1Track08_11"
    INDEX 01 00:25:46
  TRACK 12 AUDIO
    TITLE "DISC1Track08_12"
    INDEX 01 00:27:46
  TRACK 13 AUDIO
    TITLE "DISC1Track08_13"
    INDEX 01 00:30:04
  TRACK 14 AUDIO
    TITLE "DISC1Track08_14"
    INDEX 01 00:32:08
  TRACK 15 AUDIO
    TITLE "DISC1Track08_15"
    INDEX 01 00:32:20
  TRACK 16 AUDIO
    TITLE "DISC1Track08_16"
    INDEX 01 00:36:10
  TRACK 17 AUDIO
    TITLE "DISC1Track08_17"
    INDEX 01 00:39:03
  TRACK 18 AUDIO
    TITLE "DISC1Track08_18"
    INDEX 01 00:41:35
  TRACK 19 AUDIO
    TITLE "DISC1Track08_19"
    INDEX 01 00:41:50
  TRACK 20 AUDIO
    TITLE "DISC1Track08_20"
    INDEX 01 00:44:43
  TRACK 21 AUDIO
    TITLE "DISC1Track08_21"
    INDEX 01 00:47:53
  TRACK 22 AUDIO
    TITLE "DISC1Track08_22"
    INDEX 01 00:50:28
  TRACK 23 AUDIO
    TITLE "DISC1Track08_23"
    INDEX 01 00:50:42
  TRACK 24 AUDIO
    TITLE "DISC1Track08_24"
    INDEX 01 00:53:16
  TRACK 25 AUDIO
    TITLE "DISC1Track08_25"
    INDEX 01 00:56:28
  TRACK 26 AUDIO
    TITLE "DISC1Track08_26"
    INDEX 01 00:59:19
  TRACK 27 AUDIO
    TITLE "DISC1Track08_27"
    INDEX 01 00:59:33
  TRACK 28 AUDIO
    TITLE "DISC1Track08_28"
    INDEX 01 01:03:01
  TRACK 29 AUDIO
    TITLE "DISC1Track08_29"
    INDEX 01 01:06:19
  TRACK 30 AUDIO
    TITLE "DISC1Track08_30"
    INDEX 01 01:08:69
  TRACK 31 AUDIO
    TITLE "DISC1Track08_31"
    INDEX 01 01:09:19
  TRACK 32 AUDIO
    TITLE "DISC1Track08_32"
    INDEX 01 01:11:12
  TRACK 33 AUDIO
    TITLE "DISC1Track08_33"
    INDEX 01 01:13:35
  TRACK 34 AUDIO
    TITLE "DISC1Track08_34"
    INDEX 01 01:15:24
  TRACK 35 AUDIO
    TITLE "DISC1Track08_35"
    INDEX 01 01:15:39
  TRACK 36 AUDIO
    TITLE "DISC1Track08_36"
    INDEX 01 01:19:37
  TRACK 37 AUDIO
    TITLE "DISC1Track08_37"
    INDEX 01 01:23:23
  TRACK 38 AUDIO
    TITLE "DISC1Track08_38"
    INDEX 01 01:26:61
  TRACK 39 AUDIO
    TITLE "DISC1Track08_39"
    INDEX 01 01:27:04
  TRACK 40 AUDIO
    TITLE "DISC1Track08_40"
    INDEX 01 01:30:04
  TRACK 41 AUDIO
    TITLE "DISC1Track08_41"
    INDEX 01 01:33:24
  TRACK 42 AUDIO
    TITLE "DISC1Track08_42"
    INDEX 01 01:36:18
  TRACK 43 AUDIO
    TITLE "DISC1Track08_43"
    INDEX 01 01:36:26
  TRACK 44 AUDIO
    TITLE "DISC1Track08_44"
    INDEX 01 01:40:43
  TRACK 45 AUDIO
    TITLE "DISC1Track08_45"
    INDEX 01 01:44:29
  TRACK 46 AUDIO
    TITLE "DISC1Track08_46"
    INDEX 01 01:47:61
  TRACK 47 AUDIO
    TITLE "DISC1Track08_47"
    INDEX 01 01:48:02
  TRACK 48 AUDIO
    TITLE "DISC1Track08_48"
    INDEX 01 01:52:00
  TRACK 49 AUDIO
    TITLE "DISC1Track08_49"
    INDEX 01 01:56:01
  TRACK 50 AUDIO
    TITLE "DISC1Track08_50"
    INDEX 01 01:59:45
